<?xml version="1.0" standalone="no"?>
<!DOCTYPE svg PUBLIC "-//W3C//DTD SVG 20010904//EN"
 "http://www.w3.org/TR/2001/REC-SVG-20010904/DTD/svg10.dtd">
<svg version="1.0" xmlns="http://www.w3.org/2000/svg"
 width="400.000000pt" height="400.000000pt" viewBox="0 0 400.000000 400.000000"
 preserveAspectRatio="xMidYMid meet">
<metadata>
Created by potrace 1.11, written by Peter Selinger 2001-2013
</metadata>
<g transform="translate(0.000000,400.000000) scale(0.100000,-0.100000)"
fill="#000000" stroke="none">
<path d="M224 3985 c3 -8 9 -23 12 -32 5 -15 4 -16 -5 -3 -6 8 -11 11 -11 6 0
-5 -9 -1 -19 8 -19 18 -20 17 -14 -37 5 -53 5 -56 -16 -50 -11 3 -21 10 -21
15 0 5 -9 7 -20 3 -10 -3 -28 -1 -40 5 -19 10 -21 9 -20 -17 0 -4 13 -6 29 -5
30 3 55 -17 46 -39 -3 -8 -20 -23 -38 -33 -25 -16 -28 -20 -14 -24 9 -2 32 6
51 17 18 12 38 21 45 21 15 0 14 -53 -1 -68 -17 -17 -99 -15 -143 4 -45 18
-55 13 -20 -10 44 -29 125 -42 160 -25 25 12 30 21 33 57 4 51 22 55 62 12 31
-33 40 -37 40 -16 0 8 -18 30 -40 49 -36 31 -38 35 -25 53 19 25 19 74 -1 102
-17 25 -39 30 -30 7z m5 -87 c-14 -26 -19 -22 -19 12 0 26 2 29 14 18 10 -9
11 -18 5 -30z"/>
<path d="M410 3986 c0 -9 4 -16 9 -16 5 0 12 -8 15 -17 2 -10 4 -5 3 11 -2 30
-27 50 -27 22z"/>
<path d="M491 3958 c-11 -41 -22 -98 -40 -213 -8 -59 -37 -118 -54 -112 -8 3
-11 36 -10 113 2 144 -10 92 -37 -156 -10 -102 -27 -210 -36 -240 l-17 -54
-36 41 c-36 42 -36 42 -80 32 -24 -5 -51 -7 -58 -5 -22 9 2 42 48 68 37 22 39
25 34 58 -3 19 -11 47 -17 63 -8 20 -7 35 2 57 15 37 9 46 -20 30 -16 -9 -28
-8 -52 4 -17 9 -37 16 -45 16 -8 0 -22 7 -31 16 -14 15 -17 15 -29 -2 -7 -10
-13 -26 -13 -36 0 -16 3 -16 20 -6 16 10 30 9 77 -7 61 -21 66 -29 80 -125 4
-32 2 -37 -29 -51 -41 -20 -67 -63 -51 -87 8 -13 23 -16 65 -14 52 3 55 1 96
-43 l44 -45 -31 -45 c-17 -25 -31 -55 -31 -66 0 -12 -10 -23 -27 -30 -29 -11
-83 -3 -83 12 0 5 -9 9 -19 9 -11 0 -22 4 -26 10 -7 11 -35 2 -35 -11 0 -5 8
-9 18 -10 10 0 12 -3 5 -6 -7 -2 -13 -21 -13 -40 l0 -35 -19 23 c-14 17 -16
28 -9 37 8 9 5 12 -11 12 -19 0 -21 -6 -21 -59 0 -55 2 -59 26 -65 14 -4 40
-20 58 -36 31 -30 46 -37 46 -22 0 18 -29 114 -38 125 -13 16 3 57 21 57 8 0
21 -7 28 -16 9 -11 24 -15 50 -11 20 3 41 2 46 -2 19 -12 22 -51 5 -67 -13
-13 -13 -20 -3 -36 7 -11 14 -30 17 -41 2 -11 9 -24 16 -29 10 -7 10 -11 -3
-21 -17 -13 -19 -18 -19 -42 0 -8 -8 -15 -17 -15 -15 0 -18 -8 -17 -42 1 -33
5 -42 17 -40 9 1 18 -7 22 -18 3 -11 11 -20 16 -20 5 0 9 -9 9 -21 0 -15 4
-19 16 -15 9 4 23 1 30 -5 14 -12 19 -70 7 -82 -18 -19 -10 -54 16 -70 20 -12
32 -31 41 -64 16 -58 108 -250 132 -275 9 -9 27 -36 39 -60 27 -54 28 -55 39
-39 4 8 8 -36 8 -105 0 -65 3 -136 7 -156 5 -27 3 -48 -10 -74 -9 -20 -15 -46
-13 -58 4 -19 1 -22 -19 -18 -17 3 -23 11 -23 31 -2 95 -13 217 -21 225 -9 10
-49 -20 -49 -37 0 -5 8 -16 17 -23 16 -11 16 -13 -9 -24 -23 -11 -25 -15 -13
-26 7 -8 18 -14 23 -14 21 0 32 -31 37 -106 3 -43 10 -110 15 -149 5 -38 12
-106 15 -150 3 -44 8 -93 11 -110 2 -16 7 -57 11 -89 6 -59 6 -59 -18 -53 -13
4 -31 7 -39 7 -8 0 -33 15 -55 34 -34 30 -37 36 -25 50 10 13 10 20 2 28 -7 7
-12 27 -12 44 0 18 -4 36 -10 39 -5 3 -10 11 -10 16 0 5 11 2 25 -7 27 -18 33
-14 12 8 -7 7 -21 39 -31 71 -10 31 -22 55 -26 52 -5 -3 -10 9 -12 27 -2 17
-8 33 -15 35 -9 3 -11 -42 -7 -187 2 -106 6 -195 8 -199 17 -27 -153 -78 -265
-80 -19 -1 -44 -7 -54 -15 -10 -7 -26 -11 -36 -9 -17 5 -18 -11 -18 -278 0
-252 1 -282 14 -265 8 11 15 40 16 65 0 25 3 40 6 34 8 -20 23 -15 23 7 0 11
4 20 9 20 5 0 11 11 13 25 4 33 23 19 33 -24 6 -29 5 -33 -9 -28 -13 5 -16 -1
-16 -28 0 -19 -5 -35 -11 -35 -5 0 -8 -4 -5 -8 3 -5 0 -19 -7 -33 -7 -13 -11
-39 -10 -56 1 -37 -11 -43 -29 -13 -7 11 -16 20 -20 20 -5 0 -8 -106 -8 -235
l0 -235 49 0 c30 0 51 5 54 13 4 9 7 9 14 0 12 -17 431 -17 451 0 12 9 16 9
19 0 6 -17 274 -18 291 -1 8 8 15 8 24 0 8 -7 68 -11 156 -11 l143 0 -5 140
c-2 76 -3 139 -1 139 2 0 11 -7 19 -16 15 -14 16 -14 16 5 0 12 -4 21 -9 21
-16 0 -56 93 -43 98 7 2 10 8 6 13 -3 5 -3 9 -1 9 3 0 28 -30 56 -66 48 -63
64 -93 41 -79 -15 9 -12 -2 6 -31 13 -19 16 -45 15 -107 -1 -45 -4 -93 -7
-107 -4 -21 -3 -22 4 -5 11 24 26 132 23 159 -2 14 2 17 13 13 14 -6 14 -4 0
19 -28 42 -7 39 38 -5 44 -45 131 -95 151 -88 7 2 -7 13 -30 25 -23 12 -68 46
-101 77 -52 48 -60 60 -66 102 -16 119 -26 144 -26 65 0 -29 -2 -52 -5 -52
-18 0 -117 137 -136 189 -9 22 -20 221 -13 221 2 0 15 -17 29 -37 30 -45 32
-37 5 19 -21 44 -18 66 5 34 8 -10 28 -34 46 -54 31 -34 36 -47 54 -156 2 -16
7 -31 11 -35 7 -6 -1 111 -12 192 -5 32 -3 47 5 47 6 0 11 -3 11 -7 0 -5 19
-28 42 -53 41 -45 43 -41 4 15 -25 36 -47 77 -44 81 5 5 78 -66 78 -76 0 -6 5
-10 11 -10 6 0 8 9 4 20 -7 22 6 26 36 10 34 -19 20 5 -45 76 -109 118 -126
138 -126 149 0 6 -9 28 -19 48 -10 21 -22 70 -26 110 -4 39 -11 88 -16 107 -6
24 -4 51 5 86 8 31 10 57 5 65 -7 12 -9 12 -9 0 0 -8 -2 -12 -5 -9 -7 7 25 68
36 68 6 0 7 -23 3 -59 -4 -34 -2 -66 4 -76 11 -22 15 -9 32 119 6 44 17 87 24
95 8 9 23 59 34 112 11 53 26 107 33 120 7 13 11 24 9 24 -2 0 0 10 4 22 4 13
13 20 21 17 16 -7 27 9 19 29 -3 9 -12 13 -21 10 -13 -5 -15 -1 -10 18 10 40
37 99 45 99 4 0 45 -7 92 -15 142 -25 253 -19 479 26 117 24 324 150 417 254
32 37 78 102 102 146 34 62 56 88 100 121 87 65 157 83 215 56 18 -9 27 -21
27 -36 0 -15 8 -26 24 -32 18 -6 28 -22 37 -52 6 -24 15 -54 20 -68 5 -14 13
-54 18 -90 11 -80 61 -214 101 -269 17 -22 30 -43 30 -47 0 -3 34 -45 75 -94
61 -72 92 -99 174 -149 55 -34 103 -66 106 -72 8 -12 -40 -88 -67 -107 -10 -7
-18 -17 -18 -22 0 -4 -16 -32 -35 -62 -19 -29 -38 -62 -40 -73 -16 -60 -29
-101 -36 -110 -25 -34 -116 -224 -111 -231 4 -4 2 -4 -5 0 -7 4 -14 -3 -19
-16 -4 -13 -17 -36 -30 -51 -13 -16 -24 -36 -24 -44 0 -9 -3 -14 -6 -10 -10 9
-43 -25 -37 -39 7 -20 -4 -17 -29 6 -16 15 -22 32 -22 67 -1 34 -7 53 -23 69
-14 14 -20 29 -16 43 3 12 1 21 -4 21 -5 0 -10 17 -10 37 -1 24 -8 41 -20 50
-10 7 -23 17 -29 22 -7 6 -23 10 -35 10 -72 1 -83 -1 -96 -19 -16 -23 -57 -36
-143 -45 -84 -10 -321 -7 -334 4 -22 17 -136 21 -196 7 -33 -8 -63 -15 -65
-15 -3 -1 -32 -1 -66 -1 -37 0 -58 -4 -54 -10 7 -11 180 -12 267 -1 31 4 65 4
75 0 26 -9 232 -20 401 -20 l142 -1 11 -45 c13 -49 18 -53 73 -56 20 -1 36 -5
36 -9 0 -4 10 -8 23 -10 34 -5 35 -74 1 -163 -14 -38 -27 -78 -27 -88 -1 -10
-7 -15 -14 -13 -7 3 -10 -1 -6 -10 3 -8 -1 -14 -11 -14 -9 0 -16 -6 -16 -13 0
-8 -11 -20 -25 -27 -14 -7 -25 -20 -25 -28 0 -13 -22 -42 -79 -107 -10 -11
-35 -44 -55 -73 -21 -28 -41 -52 -46 -52 -4 0 -11 -7 -14 -16 -5 -13 -2 -15
15 -11 20 5 21 3 15 -40 -3 -25 -6 -54 -6 -65 0 -11 -5 -16 -11 -13 -6 4 -9 1
-8 -6 1 -8 -1 -22 -4 -31 -17 -44 -19 -55 -22 -93 l-3 -40 10 38 c11 39 34 53
25 15 -3 -13 -9 -47 -13 -76 l-7 -52 226 0 c154 0 228 4 233 11 4 8 9 7 15 -2
8 -12 11 -11 19 1 6 10 10 11 10 3 0 -10 27 -13 100 -13 l100 0 1 73 c1 39 5
86 10 102 5 19 7 -6 5 -72 l-4 -103 90 0 c81 0 90 2 95 20 3 11 9 20 14 20 13
0 11 -14 -3 -28 -9 -9 0 -12 40 -12 29 0 52 5 52 10 0 6 5 10 11 10 5 0 7 -4
4 -10 -4 -6 14 -10 48 -10 l53 0 18 80 c10 44 23 83 27 86 5 3 9 2 9 -3 0 -12
-28 -126 -35 -145 -7 -17 3 -18 112 -18 114 0 120 1 131 23 l11 22 0 -22 c1
-13 7 -23 15 -23 13 0 15 96 16 689 l1 689 -41 -4 -40 -4 0 49 c0 27 5 51 11
53 7 2 6 12 -3 29 -21 39 -11 107 16 115 66 20 76 82 21 129 -19 16 -35 39
-35 50 0 12 -6 27 -12 34 -11 10 -10 15 5 25 9 7 17 23 17 36 0 12 5 40 12 61
11 37 12 38 29 23 18 -16 18 19 19 1005 l0 1021 -135 0 c-138 0 -145 -2 -125
-39 5 -10 11 -41 14 -70 4 -41 2 -51 -11 -51 -11 0 -14 -6 -8 -22 4 -13 6 -36
6 -52 -1 -15 3 -33 8 -40 11 -14 19 -126 8 -126 -4 0 -8 -30 -8 -67 0 -38 -2
-99 -3 -138 -2 -38 -4 -85 -5 -102 -1 -30 -4 -33 -31 -33 -17 0 -56 -8 -88
-19 -31 -10 -86 -26 -122 -35 -81 -21 -142 -56 -212 -122 -47 -45 -128 -145
-128 -159 0 -9 -64 -100 -78 -112 -9 -7 -29 -10 -50 -7 -23 4 -32 2 -27 -5 3
-6 -2 -12 -14 -12 -12 -1 -24 -2 -28 -3 -15 -3 -84 -79 -99 -108 -12 -23 -21
-28 -51 -28 -53 0 -111 -19 -171 -57 -65 -41 -77 -42 -67 -5 22 80 24 229 4
216 -5 -3 -9 21 -9 54 0 82 -25 210 -62 317 -59 172 -108 245 -221 332 -34 26
-70 58 -80 70 -10 13 -25 30 -34 38 -13 13 -11 19 16 54 17 21 31 43 31 47 0
5 9 20 20 34 11 14 20 31 20 38 0 19 80 149 112 182 l28 30 -949 0 -948 0 -12
-42z m1208 -389 c40 -14 53 -55 25 -76 -14 -11 -37 -13 -83 -10 -36 3 -76 0
-90 -5 -15 -6 -42 -14 -61 -18 -114 -26 -179 -69 -324 -212 -60 -60 -111 -106
-114 -104 -5 6 71 129 133 213 59 81 176 163 290 204 57 21 175 25 224 8z
m526 -74 c156 -90 279 -349 310 -655 9 -96 -11 -257 -43 -345 -17 -44 -33 -92
-36 -106 -11 -52 -75 -126 -190 -220 -126 -104 -165 -123 -346 -169 -154 -40
-448 -24 -466 25 -3 7 11 47 29 91 19 43 51 125 72 182 20 56 41 102 45 102 5
0 6 8 3 18 -4 18 12 39 32 41 6 1 10 9 10 19 1 33 17 82 25 77 5 -3 11 4 15
14 4 12 12 18 20 14 8 -3 18 2 21 11 6 15 18 16 98 10 111 -8 115 -5 123 95 5
56 9 71 22 71 23 0 89 -46 141 -99 39 -40 45 -43 48 -26 3 14 -15 38 -65 85
-40 37 -76 80 -83 100 -17 45 -17 45 -36 30 -13 -12 -17 -11 -24 1 -8 11 -13
12 -30 1 -27 -16 -34 0 -22 53 l8 40 49 -3 c26 -1 68 -11 93 -22 50 -22 52
-23 52 -12 0 14 -76 50 -132 61 -32 7 -60 17 -64 22 -3 6 -17 8 -30 5 -13 -4
-24 -5 -24 -2 0 12 36 88 61 127 l29 46 46 -9 c35 -8 48 -7 54 2 5 9 9 9 14 1
4 -6 20 -11 36 -11 24 0 28 3 23 18 -4 9 -11 20 -17 24 -7 5 -7 8 2 8 6 0 12
5 12 11 0 6 -7 9 -15 5 -8 -3 -15 -1 -15 4 0 6 9 10 20 10 13 0 20 -7 20 -20
0 -13 10 -24 26 -30 35 -14 34 -14 34 20 0 23 -11 41 -40 70 -37 37 -76 64
-92 65 -25 1 -5 62 47 145 24 38 29 41 58 35 18 -4 50 -17 72 -30z m-155 -175
c0 -5 -4 -10 -10 -10 -5 0 -10 5 -10 10 0 6 5 10 10 10 6 0 10 -4 10 -10z
m-1780 -232 c0 -28 -2 -49 -5 -47 -9 10 -13 99 -4 99 5 0 9 -23 9 -52z m1570
38 c0 -3 -4 -8 -10 -11 -5 -3 -10 -1 -10 4 0 6 5 11 10 11 6 0 10 -2 10 -4z
m1905 -57 c26 -25 13 -46 -38 -64 -56 -19 -71 -34 -54 -54 9 -11 13 -42 12
-93 -2 -62 -7 -86 -30 -130 -36 -69 -45 -80 -63 -73 -9 3 -19 0 -24 -7 -5 -9
-8 -6 -8 10 0 13 -6 22 -15 22 -8 0 -15 8 -15 19 0 10 -9 21 -19 24 -15 3 -20
-2 -25 -23 -4 -22 -10 -28 -31 -26 -14 0 -25 5 -25 10 0 5 -8 2 -18 -7 -20
-19 -52 -23 -52 -7 0 20 -197 -16 -224 -41 -6 -5 -23 -9 -38 -9 -35 0 -36 14
-3 83 18 36 36 58 60 71 19 11 35 26 35 34 0 11 -3 12 -14 3 -25 -21 42 104
73 135 34 35 109 74 141 74 12 0 40 10 63 22 112 57 266 71 312 27z m-1881
-143 c-8 -32 -28 -29 -32 3 -2 14 0 21 6 17 6 -4 14 -1 17 5 11 17 16 3 9 -25z
m-16 -177 c22 -17 22 -18 3 -24 -28 -9 -101 13 -101 30 0 21 69 16 98 -6z
m-1534 -24 c3 -8 1 -15 -4 -15 -6 0 -10 7 -10 15 0 8 2 15 4 15 2 0 6 -7 10
-15z m2667 -91 c-12 -26 -21 -68 -21 -95 0 -50 -7 -58 -28 -37 -16 16 -15 58
1 59 6 0 2 4 -10 9 -23 9 -29 34 -15 57 14 23 87 74 90 64 2 -5 -6 -31 -17
-57z m184 -46 c43 -19 24 -45 -30 -39 -37 3 -48 13 -39 34 7 20 33 22 69 5z
m182 -8 c38 -22 49 -57 35 -100 -7 -18 -7 -32 -1 -35 24 -16 6 -34 -38 -40
-27 -3 -60 -12 -75 -20 -16 -8 -30 -10 -33 -4 -8 11 -52 12 -59 1 -7 -12 37
-34 60 -30 10 2 22 7 26 13 5 6 12 5 20 -3 16 -16 28 -15 28 3 0 18 14 19 41
4 16 -8 23 -7 32 4 23 28 47 28 59 1 10 -21 13 -23 21 -9 6 11 17 15 32 11 21
-5 24 -2 30 33 4 22 13 45 21 52 8 6 14 18 14 25 0 8 4 14 9 14 18 0 40 -43
36 -69 -12 -76 -18 -177 -16 -271 2 -108 -13 -206 -46 -285 -47 -115 -77 -175
-90 -175 -29 0 -139 65 -212 125 -66 54 -85 78 -139 172 -95 167 -102 190
-102 346 0 72 5 139 10 147 8 13 10 12 10 -2 0 -13 8 -18 29 -18 17 0 33 -5
36 -10 10 -17 75 -40 110 -40 56 0 116 85 101 144 -10 40 5 45 51 16z m-107
-20 c0 -5 -7 -10 -15 -10 -8 0 -15 5 -15 10 0 6 7 10 15 10 8 0 15 -4 15 -10z
m-2673 -432 c-3 -8 -6 -5 -6 6 -1 11 2 17 5 13 3 -3 4 -12 1 -19z m3343 -373
c10 6 23 -42 15 -55 -12 -19 -22 -10 -33 29 -15 47 -15 62 -1 38 6 -9 14 -15
19 -12z m-233 -37 c-3 -7 -5 -2 -5 12 0 14 2 19 5 13 2 -7 2 -19 0 -25z
m-2465 -90 c-7 -7 -12 -8 -12 -2 0 14 12 26 19 19 2 -3 -1 -11 -7 -17z m-52
-150 c0 -7 2 -104 3 -215 l2 -202 -22 42 c-12 23 -20 50 -17 59 3 9 -4 25 -14
35 -28 28 -41 90 -37 178 3 44 5 85 5 90 0 6 4 4 9 -4 6 -10 10 -10 16 -1 6 9
9 9 15 0 6 -9 10 -6 15 9 7 23 25 29 25 9z m2633 -17 c9 -43 -5 -84 -30 -87
-23 -4 -42 14 -26 25 5 3 15 25 23 49 16 49 25 53 33 13z m-3158 -111 c-3 -5
-1 -10 5 -10 6 0 8 -5 5 -11 -4 -5 2 -18 13 -28 22 -18 43 -79 25 -68 -31 19
-70 127 -47 127 3 0 2 -4 -1 -10z m542 -22 c-3 -8 -6 -5 -6 6 -1 11 2 17 5 13
3 -3 4 -12 1 -19z m-547 -49 c0 -6 -4 -7 -10 -4 -5 3 -10 11 -10 16 0 6 5 7
10 4 6 -3 10 -11 10 -16z m37 -96 c-4 -3 -7 -1 -7 5 0 7 -7 12 -15 12 -19 0
-19 -13 0 -50 21 -41 5 -37 -22 5 -27 41 -28 45 -8 45 8 0 15 7 15 15 0 13 4
12 22 -5 12 -11 18 -23 15 -27z m2136 -17 c1 -5 -6 -14 -15 -20 -13 -8 -21 -7
-30 2 -10 10 -10 15 2 22 17 11 40 9 43 -4z m-2142 -152 c-6 -32 -14 -61 -19
-65 -12 -12 -56 -12 -86 0 -41 17 -26 24 23 11 50 -13 61 -8 61 29 0 31 20 95
27 87 2 -2 0 -30 -6 -62z m-411 41 c0 -8 -4 -15 -10 -15 -5 0 -10 7 -10 15 0
8 5 15 10 15 6 0 10 -7 10 -15z m-1 -104 c-2 -44 -1 -77 3 -74 5 2 8 0 8 -5 0
-12 -28 -24 -32 -14 -8 18 5 172 14 172 6 0 9 -29 7 -79z m591 50 c5 -11 10
-36 10 -56 0 -20 6 -43 14 -51 13 -12 14 -8 11 28 l-3 43 20 -45 c25 -59 59
-159 61 -182 1 -10 7 -18 13 -18 11 0 28 -36 25 -54 -1 -5 2 -12 8 -15 13 -9
61 -194 61 -237 0 -19 -4 -34 -9 -34 -10 0 -37 61 -33 74 1 4 -2 14 -8 20 -18
23 -67 120 -80 161 -7 22 -26 66 -41 97 -47 94 -94 288 -70 288 6 0 15 -9 21
-19z m-338 -18 c10 -3 16 -9 13 -13 -3 -5 -19 -2 -35 7 -32 15 -42 30 -12 18
9 -4 25 -10 34 -12z m652 -14 c10 -17 16 -33 13 -35 -2 -3 -14 11 -25 31 -12
19 -18 35 -14 35 4 0 16 -14 26 -31z m-30 -25 c5 -14 4 -15 -9 -4 -17 14 -19
20 -6 20 5 0 12 -7 15 -16z m29 -87 c-3 -5 0 -8 7 -5 24 8 59 -37 71 -90 6
-29 8 -58 6 -65 -4 -7 -6 -6 -6 4 -1 9 -10 19 -21 22 -11 3 -23 13 -26 24 -4
10 -17 32 -30 49 -13 17 -25 44 -28 59 -3 15 -11 34 -18 43 -7 9 1 5 19 -8 18
-13 30 -28 26 -33z m-1057 16 c-8 -8 -36 5 -36 17 0 7 6 7 21 0 11 -7 18 -14
15 -17z m-63 -36 c-4 -6 -12 -3 -20 8 -20 28 -16 41 7 20 11 -10 17 -22 13
-28z m515 -3 c-4 -3 -12 5 -18 18 -12 22 -12 22 6 6 10 -10 15 -20 12 -24z
m-18 -14 c9 -17 8 -20 -14 -20 -23 0 -36 16 -36 46 0 20 35 1 50 -26z m-266 7
c8 -7 17 -24 21 -37 7 -23 6 -22 -19 6 -14 18 -26 35 -26 38 0 10 11 7 24 -7z
m1097 -53 c12 -14 11 -16 -5 -13 -11 2 -21 10 -24 17 -5 17 13 15 29 -4z
m1594 -56 c3 -24 9 -59 12 -78 4 -25 2 -32 -6 -25 -6 6 -12 21 -14 35 -2 13
-9 26 -14 27 -6 2 -8 13 -6 25 3 11 0 24 -7 28 -15 9 -5 30 15 30 8 0 16 -17
20 -42z m-2368 -14 c3 -8 11 -13 18 -10 13 5 35 -33 35 -59 0 -27 -20 -16 -26
14 -6 27 -7 28 -31 16 -34 -18 -53 -9 -53 26 0 24 4 29 25 29 14 0 28 -7 32
-16z m-264 -21 c9 -50 7 -92 -3 -98 -6 -3 -7 -17 -4 -30 7 -30 -13 -72 -28
-57 -8 8 -7 28 1 69 6 32 12 77 13 101 1 47 14 56 21 15z m351 -38 c3 -8 12
-12 21 -9 10 4 15 0 15 -10 0 -9 11 -21 24 -25 13 -5 26 -17 30 -26 3 -9 10
-13 16 -10 5 3 15 -5 22 -19 8 -20 14 -23 24 -15 10 8 15 5 20 -15 7 -28 19
-34 27 -13 2 6 8 0 12 -15 4 -16 12 -28 17 -28 6 0 8 9 5 20 -6 25 1 26 20 3
13 -17 14 -16 10 5 -3 12 -2 22 3 22 9 0 28 -48 28 -70 1 -8 3 -25 7 -36 5
-17 2 -23 -17 -27 -13 -4 -27 -2 -33 6 -6 6 -19 17 -30 23 -11 6 -23 22 -26
35 -4 13 -7 18 -8 12 -2 -25 -22 -12 -28 18 -4 20 -8 26 -14 18 -6 -10 -11
-10 -23 0 -9 8 -16 20 -16 27 0 8 -6 11 -15 8 -8 -4 -17 1 -21 10 -3 9 -10 16
-16 16 -5 0 -25 12 -44 26 -25 19 -34 34 -34 55 0 31 14 39 24 14z m-124 -26
c0 -5 -4 -9 -10 -9 -5 0 -10 7 -10 16 0 8 5 12 10 9 6 -3 10 -10 10 -16z
m2803 -27 c25 -22 45 -71 45 -109 1 -28 -3 -32 -21 -30 -26 2 -37 15 -37 42 1
19 2 19 20 -4 l20 -23 0 25 c0 14 -6 32 -12 39 -7 7 -19 25 -27 41 -8 15 -18
27 -23 27 -4 0 -8 5 -8 11 0 11 15 4 43 -19z m-2263 -86 c0 -3 -4 -8 -10 -11
-5 -3 -10 -1 -10 4 0 6 5 11 10 11 6 0 10 -2 10 -4z m-638 -86 c6 0 7 8 4 17
-6 15 -4 15 14 -2 20 -18 20 -18 20 3 0 12 5 22 10 22 6 0 10 8 11 18 0 12 3
10 10 -7 7 -17 6 -27 -2 -31 -8 -6 -8 -13 1 -30 9 -17 9 -24 1 -30 -7 -3 -9
-14 -5 -23 9 -24 -45 -36 -61 -13 -7 9 -17 16 -23 16 -17 0 -28 56 -23 110 3
23 4 22 18 -12 9 -21 20 -38 25 -38z m2668 56 c0 -3 -4 -8 -10 -11 -5 -3 -10
-1 -10 4 0 6 5 11 10 11 6 0 10 -2 10 -4z m-2878 -14 c3 8 9 5 17 -10 14 -26
5 -45 -10 -22 -7 10 -8 3 -3 -23 6 -35 4 -39 -12 -35 -15 2 -20 14 -22 52 -3
43 -1 48 11 37 12 -9 16 -9 19 1z m2658 1 c0 -5 -5 -15 -10 -23 -8 -12 -10
-11 -10 8 0 12 5 22 10 22 6 0 10 -3 10 -7z m793 -25 c-2 -5 -11 -8 -20 -8 -9
0 -13 -6 -9 -15 6 -18 -5 -20 -22 -3 -6 6 -23 12 -37 13 -20 0 -25 -4 -25 -22
0 -16 -4 -21 -15 -17 -8 4 -15 18 -15 33 0 26 1 26 74 26 41 0 72 -3 69 -7z
m153 -34 c22 -38 25 -48 13 -55 -22 -14 -29 -11 -29 11 0 11 -6 20 -14 20 -7
0 -19 7 -26 15 -10 12 -9 15 6 15 17 1 18 2 2 13 -9 7 -32 12 -52 12 -19 -1
-33 2 -30 7 3 4 27 8 54 8 48 0 50 -1 76 -46z m-986 26 c0 -5 -5 -10 -11 -10
-5 0 -7 5 -4 10 3 6 8 10 11 10 2 0 4 -4 4 -10z m-30 -24 c0 -8 -4 -18 -10
-21 -5 -3 -10 3 -10 14 0 12 5 21 10 21 6 0 10 -6 10 -14z m828 -35 c-7 -11
-16 -17 -20 -15 -14 9 -9 22 10 27 9 3 18 5 20 6 1 0 -3 -8 -10 -18z m-872
-56 c-4 -35 -11 -75 -17 -87 -10 -23 -9 -14 8 110 9 67 16 49 9 -23z m61 43
c-3 -8 -6 -5 -6 6 -1 11 2 17 5 13 3 -3 4 -12 1 -19z m-30 -30 c-3 -7 -5 -2
-5 12 0 14 2 19 5 13 2 -7 2 -19 0 -25z m1091 10 c-6 -18 -28 -21 -28 -4 0 9
7 16 16 16 9 0 14 -5 12 -12z m-1182 -20 c-2 -7 -10 -53 -17 -101 -7 -48 -17
-91 -22 -94 -5 -3 -7 3 -4 13 3 11 11 58 18 107 7 48 17 87 21 87 4 0 6 -6 4
-12z m713 -71 c1 -17 -3 -26 -9 -22 -5 3 -9 30 -9 58 1 45 2 48 9 22 4 -16 8
-43 9 -58z m490 56 c0 -25 -1 -25 -8 -8 -5 11 -7 23 -4 28 8 14 13 7 12 -20z
m-3749 -3 c0 -5 -4 -10 -10 -10 -5 0 -10 5 -10 10 0 6 5 10 10 10 6 0 10 -4
10 -10z m600 0 c0 -5 -2 -10 -4 -10 -3 0 -8 5 -11 10 -3 6 -1 10 4 10 6 0 11
-4 11 -10z m1966 -51 c-8 -64 -24 -121 -25 -85 -1 26 21 146 27 146 3 0 1 -27
-2 -61z m61 19 c-3 -7 -5 -2 -5 12 0 14 2 19 5 13 2 -7 2 -19 0 -25z m53 -4
c-9 -23 -13 -25 -20 -14 -6 8 -10 22 -10 30 0 13 1 13 10 0 8 -12 10 -12 16 3
3 10 8 16 11 14 2 -2 -1 -17 -7 -33z m-1761 -71 c2 -44 -16 -23 -23 27 -8 62
5 92 16 35 4 -22 7 -50 7 -62z m1550 3 c-9 -8 -10 -5 -5 14 3 14 7 39 8 55 1
20 3 16 5 -14 3 -26 -1 -48 -8 -55z m26 -12 c-9 -49 -21 -93 -25 -98 -5 -4 -5
9 0 30 4 22 13 67 20 102 7 34 15 61 17 58 2 -2 -3 -44 -12 -92z m512 54 c-3
-7 -5 -2 -5 12 0 14 2 19 5 13 2 -7 2 -19 0 -25z m-3040 -10 c-3 -7 -5 -2 -5
12 0 14 2 19 5 13 2 -7 2 -19 0 -25z m2480 -5 c-3 -33 -14 -90 -34 -183 -3
-14 -8 -19 -10 -12 -4 11 11 108 33 210 7 36 15 25 11 -15z m1249 0 c-11 -11
-17 4 -9 23 7 18 8 18 11 1 2 -10 1 -21 -2 -24z m-963 12 c-3 -9 -8 -14 -10
-11 -3 3 -2 9 2 15 9 16 15 13 8 -4z m-2883 -53 c0 -15 -2 -15 -10 -2 -13 20
-13 33 0 25 6 -3 10 -14 10 -23z m97 -14 c-3 -7 -5 -2 -5 12 0 14 2 19 5 13 2
-7 2 -19 0 -25z m2764 5 c-12 -20 -14 -14 -5 12 4 9 9 14 11 11 3 -2 0 -13 -6
-23z m-2706 -29 c-10 -20 -15 -24 -15 -11 0 23 22 65 27 51 2 -6 -3 -24 -12
-40z m3012 -21 c-2 -16 -4 -5 -4 22 0 28 2 40 4 28 2 -13 2 -35 0 -50z m308
47 c3 -5 1 -10 -4 -10 -6 0 -11 5 -11 10 0 6 2 10 4 10 3 0 8 -4 11 -10z
m-870 -52 c-4 -29 -10 -57 -15 -61 -4 -4 -3 14 1 40 4 26 8 54 8 61 1 6 4 12
7 12 3 0 3 -24 -1 -52z m772 -15 c-2 -16 -4 -5 -4 22 0 28 2 40 4 28 2 -13 2
-35 0 -50z m280 45 c-3 -8 -6 -5 -6 6 -1 11 2 17 5 13 3 -3 4 -12 1 -19z
m-3620 -10 c-3 -8 -6 -5 -6 6 -1 11 2 17 5 13 3 -3 4 -12 1 -19z m1052 -28
c11 -53 14 -87 7 -79 -9 9 -33 129 -25 129 4 0 12 -23 18 -50z m2048 -28 c-2
-15 -4 -2 -4 28 0 30 2 43 4 27 2 -15 2 -39 0 -55z m-254 53 c-3 -9 -8 -14
-10 -11 -3 3 -2 9 2 15 9 16 15 13 8 -4z m-2895 -23 c2 -7 -2 -10 -12 -6 -9 3
-16 11 -16 16 0 13 23 5 28 -10z m92 2 c0 -8 -4 -12 -10 -9 -5 3 -10 10 -10
16 0 5 5 9 10 9 6 0 10 -7 10 -16z m3537 -6 c-3 -8 -6 -5 -6 6 -1 11 2 17 5
13 3 -3 4 -12 1 -19z m-2852 1 c10 -15 -1 -23 -20 -15 -9 3 -13 10 -10 16 8
13 22 13 30 -1z m2235 -9 c0 -5 -5 -10 -11 -10 -5 0 -7 5 -4 10 3 6 8 10 11
10 2 0 4 -4 4 -10z m-2020 -26 c0 -8 -4 -12 -10 -9 -5 3 -10 13 -10 21 0 8 5
12 10 9 6 -3 10 -13 10 -21z m2635 -24 c-4 -12 -9 -19 -12 -17 -3 3 -2 15 2
27 4 12 9 19 12 17 3 -3 2 -15 -2 -27z m-2800 9 c10 -15 -1 -23 -20 -15 -9 3
-13 10 -10 16 8 13 22 13 30 -1z m2072 -11 c-3 -8 -6 -5 -6 6 -1 11 2 17 5 13
3 -3 4 -12 1 -19z m-2389 -13 c9 -20 9 -25 -2 -25 -13 0 -26 20 -26 41 0 18
17 8 28 -16z m239 -1 c-9 -9 -28 6 -21 18 4 6 10 6 17 -1 6 -6 8 -13 4 -17z
m188 16 c3 -6 -1 -7 -9 -4 -18 7 -21 14 -7 14 6 0 13 -4 16 -10z m99 -6 c11
-27 7 -37 -9 -24 -16 14 -20 40 -6 40 5 0 12 -7 15 -16z m1949 -4 c-3 -12 -8
-19 -11 -16 -5 6 5 36 12 36 2 0 2 -9 -1 -20z m-2753 -10 c0 -5 -7 -10 -16
-10 -8 0 -12 5 -9 10 3 6 10 10 16 10 5 0 9 -4 9 -10z"/>
<path d="M2230 3242 c0 -5 3 -12 7 -16 4 -3 8 -13 9 -20 3 -21 38 -70 42 -58
4 12 -33 88 -48 97 -5 3 -10 2 -10 -3z"/>
<path d="M2226 3154 c9 -40 24 -54 24 -22 0 14 -7 31 -16 39 -13 11 -14 9 -8
-17z"/>
<path d="M1730 2570 c0 -5 5 -10 10 -10 6 0 10 5 10 10 0 6 -4 10 -10 10 -5 0
-10 -4 -10 -10z"/>
<path d="M1800 2550 c0 -5 5 -10 10 -10 6 0 10 5 10 10 0 6 -4 10 -10 10 -5 0
-10 -4 -10 -10z"/>
<path d="M3343 2830 c-81 -12 -72 -32 11 -28 50 3 55 5 44 19 -10 12 -23 14
-55 9z"/>
<path d="M520 830 c0 -5 5 -10 11 -10 5 0 7 5 4 10 -3 6 -8 10 -11 10 -2 0 -4
-4 -4 -10z"/>
<path d="M560 700 c0 -5 7 -10 16 -10 8 0 12 5 9 10 -3 6 -10 10 -16 10 -5 0
-9 -4 -9 -10z"/>
<path d="M397 3940 c-4 -14 -6 -36 -6 -50 1 -22 2 -20 10 8 6 19 9 41 7 50 -3
12 -6 10 -11 -8z"/>
<path d="M10 3870 c-12 -8 -11 -10 7 -10 12 0 25 5 28 10 8 13 -15 13 -35 0z"/>
<path d="M166 2969 c-8 -19 9 -69 24 -69 13 0 12 18 -4 55 -11 23 -15 26 -20
14z"/>
<path d="M230 2910 c0 -5 7 -10 15 -10 8 0 15 5 15 10 0 6 -7 10 -15 10 -8 0
-15 -4 -15 -10z"/>
<path d="M140 2630 c-12 -8 -11 -10 8 -10 25 0 26 -7 12 -44 -5 -14 -8 -26 -5
-26 6 0 35 62 35 77 0 15 -28 17 -50 3z"/>
<path d="M300 2630 c0 -5 4 -10 9 -10 6 0 13 5 16 10 3 6 -1 10 -9 10 -9 0
-16 -4 -16 -10z"/>
<path d="M266 2563 c-8 -8 -8 -46 0 -67 10 -25 24 -8 24 29 0 33 -11 51 -24
38z"/>
<path d="M2830 2498 c0 -39 15 -60 22 -30 2 9 -2 28 -9 42 -13 25 -13 25 -13
-12z"/>
<path d="M2906 2245 c2 -11 4 -26 4 -32 0 -7 5 -13 10 -13 6 0 10 9 10 20 0
11 -4 20 -9 20 -5 0 -11 6 -14 13 -2 6 -3 3 -1 -8z"/>
<path d="M2918 2129 c3 -31 1 -37 -15 -36 -28 3 -25 -47 3 -51 20 -3 21 -6 10
-42 -6 -21 -14 -42 -18 -45 -4 -4 4 -19 18 -33 13 -15 24 -35 24 -44 0 -10 5
-18 10 -18 13 0 13 26 -1 52 -8 16 -8 31 1 59 9 25 10 43 3 51 -12 17 -14 58
-2 58 5 0 9 8 9 18 0 13 -2 14 -9 3 -6 -9 -10 -2 -13 23 -2 20 1 38 7 40 5 2
1 4 -10 3 -17 -1 -20 -7 -17 -38z"/>
<path d="M3991 1934 c0 -11 3 -14 6 -6 3 7 2 16 -1 19 -3 4 -6 -2 -5 -13z"/>
<path d="M2930 1830 c0 -5 4 -10 9 -10 6 0 13 5 16 10 3 6 -1 10 -9 10 -9 0
-16 -4 -16 -10z"/>
<path d="M2961 1774 c1 -11 -1 -26 -4 -34 -3 -8 -8 -37 -12 -63 -7 -56 -47
-106 -120 -152 -25 -16 -45 -32 -45 -36 0 -4 -19 -15 -42 -24 l-43 -18 35 -8
c42 -10 119 -1 140 16 8 6 31 18 50 25 41 16 70 38 70 55 0 7 7 26 15 41 19
37 19 74 0 110 -8 16 -15 39 -15 52 0 12 -5 22 -11 22 -5 0 -8 4 -4 9 3 5 0
13 -6 16 -6 5 -10 0 -8 -11z"/>
<path d="M1232 615 c0 -16 2 -22 5 -12 2 9 2 23 0 30 -3 6 -5 -1 -5 -18z"/>
<path d="M1236 308 c10 -21 21 -38 26 -38 15 0 8 16 -18 46 l-25 29 17 -37z"/>
<path d="M2272 298 c-14 -14 -16 -38 -2 -38 13 0 32 38 22 44 -5 3 -14 0 -20
-6z"/>
<path d="M2330 110 c6 -11 13 -20 16 -20 2 0 0 9 -6 20 -6 11 -13 20 -16 20
-2 0 0 -9 6 -20z"/>
<path d="M1540 110 c0 -5 5 -10 10 -10 6 0 10 5 10 10 0 6 -4 10 -10 10 -5 0
-10 -4 -10 -10z"/>
<path d="M2323 83 c4 -6 0 -16 -8 -23 -17 -14 -21 -35 -5 -25 19 12 31 43 18
51 -6 4 -8 3 -5 -3z"/>
<path d="M2547 20 c-3 -11 -1 -20 4 -20 5 0 9 9 9 20 0 11 -2 20 -4 20 -2 0
-6 -9 -9 -20z"/>
</g>
</svg>
